<?xml version="1.0" encoding="UTF-8"?>
<svg version="1.1" xmlns="http://www.w3.org/2000/svg" width="512" height="512">
<path d="M0 0 C1.11427872 -0.0071553 2.22855743 -0.01431061 3.37660217 -0.02168274 C4.59996277 -0.02437164 5.82332336 -0.02706055 7.08375549 -0.02983093 C8.37189651 -0.03640213 9.66003754 -0.04297333 10.98721313 -0.04974365 C15.26360328 -0.07077682 19.53999371 -0.08115088 23.81642151 -0.09111023 C25.29180991 -0.0951592 26.76719812 -0.09927616 28.24258614 -0.10346031 C35.18056119 -0.12251673 42.11852563 -0.13674226 49.05652183 -0.14507228 C57.04425891 -0.15482239 65.03171722 -0.18108134 73.01935619 -0.22157317 C79.20469333 -0.25184275 85.38995112 -0.2665517 91.57536083 -0.26985329 C95.26353616 -0.27219305 98.95141388 -0.28101072 102.6395092 -0.30631447 C106.76563059 -0.33416408 110.89113951 -0.32973117 115.01734924 -0.32279968 C116.22249176 -0.33560974 117.42763428 -0.3484198 118.66929626 -0.36161804 C133.45591518 -0.27152465 145.55784847 4.99190817 156.10743713 15.26289368 C157.56917851 16.74282193 159.01762297 18.23419573 160.45907593 19.73389053 C162.01464785 21.35080487 163.58407031 22.95311051 165.15760803 24.55253601 C169.6222978 29.09592513 174.06047061 33.66489998 178.49269104 38.23994446 C181.22105364 41.05426346 183.96431712 43.85337862 186.71652222 46.64437485 C187.75257644 47.70138208 188.78277517 48.76416556 189.80657959 49.83304214 C191.24331516 51.33298 192.69833332 52.81286795 194.15821838 54.29023743 C195.38538574 55.55548752 195.38538574 55.55548752 196.63734436 56.84629822 C206.98181352 64.79203004 218.40238995 63.69546868 230.84889221 63.61372375 C233.0065879 63.61427302 235.16428377 63.61665095 237.32197571 63.62071228 C241.95509808 63.62587588 246.58798319 63.61885334 251.22107887 63.60246086 C258.55559808 63.5772775 265.88988484 63.58364447 273.22442627 63.59494019 C291.4416004 63.61810874 309.65870678 63.59974201 327.87586975 63.57344055 C342.03734117 63.55346888 356.19862584 63.54496252 370.36009759 63.57037693 C377.6424339 63.58215786 384.92423716 63.57061703 392.20651782 63.54112422 C396.74796296 63.52781457 401.28920421 63.53532366 405.8306427 63.54840469 C407.92636348 63.55025212 410.02211273 63.54362638 412.11777306 63.52760124 C428.90663614 63.40629426 441.56858386 65.55036169 454.63282776 77.14717102 C462.00870382 84.62391377 468.73544915 95.47344014 468.76984215 106.29063988 C468.77491669 107.13854446 468.77999123 107.98644904 468.78521955 108.8600477 C468.78596619 110.25772565 468.78596619 110.25772565 468.78672791 111.68363953 C468.79111016 112.67341722 468.79549241 113.66319492 468.80000746 114.68296587 C468.8134122 118.01527443 468.8195782 121.34755652 468.82569885 124.67988586 C468.83359873 127.06314718 468.84186761 129.44640729 468.85047913 131.82966614 C468.8744539 138.99501573 468.889633 146.16037059 468.90253919 153.32574695 C468.90625233 155.35105731 468.9102255 157.37636698 468.91429186 159.40167665 C468.93953745 171.98809596 468.96158304 184.57451639 468.97402 197.16095543 C468.97694956 200.0764453 468.97991123 202.99193514 468.98292542 205.90742493 C468.98367147 206.63202839 468.98441752 207.35663186 468.98518617 208.103193 C468.99782241 219.82457338 469.03102148 231.54580146 469.07272725 243.26711075 C469.11523156 255.31207167 469.13872511 267.35695485 469.14394057 279.40199053 C469.14734587 286.16028789 469.15899563 292.9183476 469.1920433 299.67657089 C469.22218625 306.04106591 469.22841315 312.40514787 469.21665955 318.7696991 C469.21643931 321.09923978 469.22470253 323.42879996 469.24231339 325.75827408 C469.36933322 343.53514876 467.70561789 356.29955088 455.19532776 369.77217102 C454.34970276 370.55592102 453.50407776 371.33967102 452.63282776 372.14717102 C452.15587463 372.6292804 451.67892151 373.11138977 451.18751526 373.60810852 C442.21784581 382.14446061 430.51373876 384.64456042 418.54298401 384.42451477 C413.52639553 384.06869281 411.37596892 383.45506321 407.63282776 380.14717102 C404.59877853 375.64503345 404.63282776 373.83970196 404.63282776 368.14717102 C394.07282776 368.14717102 383.51282776 368.14717102 372.63282776 368.14717102 C372.69470276 370.60154602 372.75657776 373.05592102 372.82032776 375.58467102 C373.0977862 412.29100005 355.22171119 446.3227669 330.13282776 472.08467102 C303.11714248 499.12265435 267.12777002 512.36735734 229.25782776 512.39717102 C228.10916733 512.39818314 228.10916733 512.39818314 226.93730164 512.3992157 C215.86776015 512.38368673 205.38822886 511.99758311 194.63282776 509.14717102 C193.97218323 508.98619934 193.3115387 508.82522766 192.63087463 508.65937805 C174.41054986 504.19856947 157.70730753 496.25992018 142.63282776 485.14717102 C141.35472229 484.23258118 141.35472229 484.23258118 140.05079651 483.29951477 C109.00557707 459.87401752 91.56082896 426.43658976 85.03517151 388.69013977 C84.55980868 384.50417779 84.52383624 380.4165361 84.57032776 376.20967102 C84.59095276 373.54904602 84.61157776 370.88842102 84.63282776 368.14717102 C74.07282776 368.14717102 63.51282776 368.14717102 52.63282776 368.14717102 C52.30282776 371.11717102 51.97282776 374.08717102 51.63282776 377.14717102 C48.59897395 381.00098532 45.38402234 383.80677428 40.41702271 384.42132568 C39.2100901 384.43728539 39.2100901 384.43728539 37.97877502 384.4535675 C37.06004105 384.4695549 36.14130707 384.4855423 35.19473267 384.50201416 C34.20621811 384.50737686 33.21770355 384.51273956 32.19923401 384.51826477 C31.1703154 384.52729324 30.14139679 384.53632172 29.08129883 384.54562378 C26.90001838 384.56013231 24.71869435 384.56901451 22.53736877 384.57270813 C19.23833548 384.58451707 15.94122711 384.63362342 12.64259338 384.6842804 C-4.33276975 384.81522809 -16.23435026 382.55622 -28.99217224 370.70967102 C-29.77592224 369.86404602 -30.55967224 369.01842102 -31.36717224 368.14717102 C-31.84928162 367.6702179 -32.33139099 367.19326477 -32.82810974 366.70185852 C-39.15951676 360.04906028 -43.48106896 350.20352343 -43.50418663 341.00419044 C-43.50926117 339.93334855 -43.51433572 338.86250665 -43.51956403 337.759215 C-43.52006179 336.578409 -43.52055955 335.39760301 -43.52107239 334.18101501 C-43.52545464 332.92988997 -43.5298369 331.67876492 -43.53435194 330.389727 C-43.5463208 326.9099192 -43.55196666 323.43012528 -43.5565331 319.95030093 C-43.5624883 316.19954948 -43.57409864 312.44881461 -43.58482361 308.69807434 C-43.60935389 299.63430132 -43.62397795 290.57052281 -43.63688368 281.5067268 C-43.64059588 278.94579744 -43.64456911 276.38486862 -43.64863634 273.8239398 C-43.67387882 257.91586376 -43.69592884 242.00778686 -43.70836449 226.09969521 C-43.71129413 222.41418581 -43.7142558 218.72867644 -43.7172699 215.04316711 C-43.71801595 214.1271643 -43.718762 213.2111615 -43.71953066 212.26740102 C-43.73217327 197.44210361 -43.76538067 182.61692644 -43.80707173 167.79168518 C-43.84954092 152.56460954 -43.87306548 137.33759534 -43.87828505 122.11046064 C-43.88169408 113.5636618 -43.89338873 105.01705065 -43.92638779 96.47031021 C-43.9544584 89.18809926 -43.96535715 81.90611448 -43.95419233 74.62385364 C-43.94902299 70.91175303 -43.95177855 67.20012549 -43.97665787 63.48809433 C-44.00347644 59.4527932 -43.99103119 55.41852253 -43.97517395 51.38316345 C-43.98905604 50.22466467 -44.00293813 49.0661659 -44.01724088 47.8725611 C-43.88126654 33.76418788 -38.04785046 21.72423132 -28.05076599 11.86201477 C-20.33942022 5.23991206 -10.30640283 0.04541527 0 0 Z M-8.36717224 38.14717102 C-11.96653245 43.54621134 -11.50746812 50.35842781 -11.46482849 56.60810852 C-11.46341354 57.39867645 -11.4619986 58.18924438 -11.46054077 59.00376892 C-11.45497728 61.50994268 -11.44243168 64.0160246 -11.42967224 66.52217102 C-11.42465252 68.22920097 -11.42009044 69.93623234 -11.41600037 71.64326477 C-11.40501983 75.8112685 -11.38778063 79.97920423 -11.36717224 84.14717102 C-10.83970398 83.74957581 -10.31223572 83.35198059 -9.76878357 82.94233704 C6.06353678 71.03319787 19.29450805 64.84711313 39.39845276 64.81123352 C40.70884521 64.80457672 42.01923767 64.79791992 43.36933899 64.7910614 C46.13282059 64.77915232 48.89617781 64.77537387 51.65968323 64.77656555 C55.16385565 64.77676822 58.66721234 64.74949295 62.17119217 64.71502113 C65.55945424 64.68714831 68.94757807 64.68859633 72.33595276 64.68623352 C73.5749231 64.67186249 74.81389343 64.65749146 76.09040833 64.64268494 C96.98547301 64.75061727 111.06079473 74.45087143 125.26293945 88.76318359 C128.57330101 92.11854017 131.88174494 95.47566689 135.16847229 98.85420227 C152.10587485 116.23614297 169.08803168 127.86088636 194.10943413 128.27745628 C195.6486185 128.28495409 197.18783434 128.28731063 198.72703552 128.28520203 C199.58465898 128.28802331 200.44228243 128.29084459 201.32589447 128.29375136 C204.16893769 128.30201305 207.01194154 128.30342828 209.85499573 128.30488586 C211.90594083 128.30956021 213.95688491 128.31470479 216.00782776 128.32028198 C220.41004716 128.3315193 224.81225997 128.33997431 229.21448898 128.34640121 C236.18323501 128.35712729 243.15193329 128.37738325 250.12065125 128.39952087 C269.93214229 128.461294 289.74362971 128.51545285 309.55519104 128.54853821 C320.50802369 128.56690911 331.46077544 128.59587159 342.41354859 128.63654292 C348.20191153 128.65756231 353.99017279 128.67306311 359.7785759 128.67535019 C365.22386494 128.67750453 370.6689419 128.69345399 376.11416626 128.71973991 C378.10546828 128.72690301 380.09679608 128.72904849 382.08810806 128.72563744 C395.32335515 128.70659669 407.49228111 129.19806038 419.32032776 135.83467102 C420.26222961 136.34707336 420.26222961 136.34707336 421.22315979 136.86982727 C426.04271977 139.5877268 430.12239151 142.81116568 434.09376526 146.67842102 C435.39882997 148.26223575 435.39882997 148.26223575 436.63282776 148.14717102 C436.68257108 143.16671678 436.71870874 138.18640981 436.74269104 133.20576477 C436.7526976 131.51433286 436.76630707 129.82291803 436.78370667 128.13154602 C436.80819179 125.6887946 436.81936448 123.24627353 436.82814026 120.80342102 C436.83846283 120.05725525 436.8487854 119.31108948 436.85942078 118.54231262 C436.86072324 112.33321644 436.22396741 106.58691849 432.75782776 101.27217102 C427.55588882 96.07023208 421.17854681 96.03796276 414.15619981 96.01056498 C412.9106806 96.01319054 412.9106806 96.01319054 411.63999939 96.01586914 C410.74495811 96.01375343 409.84991683 96.01163771 408.92775309 96.00945789 C405.93408722 96.00347527 402.94046372 96.00445681 399.9467926 96.00532532 C397.79791696 96.00229262 395.64904196 95.99877086 393.50016785 95.99479675 C388.87415368 95.98691514 384.24814721 95.98176558 379.62212753 95.97850609 C372.30085144 95.97258785 364.97962375 95.95603923 357.65837097 95.93716431 C355.14997676 95.93082707 352.64158252 95.92450144 350.13318825 95.91818714 C348.87703311 95.91502133 347.62087798 95.91185552 346.32665753 95.90859377 C329.28533093 95.86655108 312.24402699 95.83354906 295.20265198 95.82124329 C283.70341389 95.81285431 272.20429585 95.7903327 260.70511782 95.75188762 C254.62379675 95.73215591 248.54265502 95.7197129 242.4612999 95.72472191 C236.73695631 95.72937951 231.01295237 95.71550184 225.28867722 95.68770981 C223.19417435 95.68081689 221.09963622 95.68065088 219.00513458 95.68791008 C198.50485152 95.75175483 184.82294474 91.30085911 169.98536682 76.8585968 C168.5950389 75.4382502 167.20487553 74.01764606 165.829216 72.58308792 C164.34955944 71.04154526 162.85560384 69.51510804 161.35762024 67.99137878 C157.11128761 63.66672875 152.89219104 59.31584967 148.67823792 54.95967102 C146.07603598 52.27164143 143.45903501 49.59872535 140.83307648 46.93391037 C139.37148677 45.44127238 137.92835206 43.93229208 136.48493958 42.42210388 C135.586604 41.51040436 134.68826843 40.59870483 133.76271057 39.65937805 C132.98695679 38.85823578 132.211203 38.05709351 131.41194153 37.23167419 C124.36377974 31.94512718 116.71625319 31.71154376 108.18141174 31.77485657 C107.07128723 31.7712059 105.96116272 31.76755524 104.81739807 31.76379395 C101.17108052 31.75572997 97.52521314 31.76926362 93.87892151 31.78388977 C91.33262126 31.78440884 88.78632061 31.78388934 86.24002075 31.78237915 C80.91328934 31.78246869 75.58671384 31.79251859 70.26002502 31.81098938 C64.11889324 31.83216362 57.97794855 31.83566288 51.83678764 31.82942742 C45.90528122 31.82371531 39.97383068 31.82950686 34.04232979 31.84060097 C31.5285932 31.84444203 29.01485101 31.84560573 26.50111198 31.84401512 C22.98558319 31.84364313 19.47033566 31.85630219 15.95484924 31.87251282 C14.92241592 31.8700354 13.8899826 31.86755798 12.82626343 31.86500549 C4.88735374 31.92325381 -2.44529906 32.22529783 -8.36717224 38.14717102 Z " fill="#F3AF4C" transform="translate(43.36717224121094,-0.1471710205078125)"/>
<path d="M0 0 C1.26457031 0.268125 2.52914062 0.53625 3.83203125 0.8125 C41.1456815 9.22849849 74.83246564 32.04311378 95.41015625 64.5703125 C102.83797311 76.90512908 110.00431313 90.85792492 113 105 C113.17611816 105.82532227 113.35223633 106.65064453 113.53369141 107.50097656 C118.13220601 129.86982517 119.65236762 153.68682298 114 176 C113.83371094 176.67853027 113.66742188 177.35706055 113.49609375 178.05615234 C104.10346671 215.67014489 79.97347024 246.92899868 47.09912109 267.17041016 C24.68440483 280.57873498 -0.47832343 286.22961245 -26.375 286.25 C-27.52366043 286.25101212 -27.52366043 286.25101212 -28.69552612 286.25204468 C-39.76506761 286.23651571 -50.2445989 285.85041209 -61 283 C-61.66064453 282.83902832 -62.32128906 282.67805664 -63.00195312 282.51220703 C-81.2222779 278.05139845 -97.92552023 270.11274916 -113 259 C-114.27810547 258.08541016 -114.27810547 258.08541016 -115.58203125 257.15234375 C-146.69167065 233.67823774 -163.81040306 200.43219488 -170.58984375 162.71875 C-174.76191232 124.89199493 -166.11343759 84.7696805 -142.20703125 54.625 C-138.57674264 50.30720541 -134.87861441 46.09694701 -131 42 C-130.18015625 41.11570312 -129.3603125 40.23140625 -128.515625 39.3203125 C-96.55661395 5.94300214 -45.27918899 -9.61295207 0 0 Z " fill="#9A2E5D" transform="translate(299,226)"/>
<path d="M0 0 C1.11427872 -0.0071553 2.22855743 -0.01431061 3.37660217 -0.02168274 C4.59996277 -0.02437164 5.82332336 -0.02706055 7.08375549 -0.02983093 C8.37189651 -0.03640213 9.66003754 -0.04297333 10.98721313 -0.04974365 C15.26360328 -0.07077682 19.53999371 -0.08115088 23.81642151 -0.09111023 C25.29180991 -0.0951592 26.76719812 -0.09927616 28.24258614 -0.10346031 C35.18056119 -0.12251673 42.11852563 -0.13674226 49.05652183 -0.14507228 C57.04425891 -0.15482239 65.03171722 -0.18108134 73.01935619 -0.22157317 C79.20469333 -0.25184275 85.38995112 -0.2665517 91.57536083 -0.26985329 C95.26353616 -0.27219305 98.95141388 -0.28101072 102.6395092 -0.30631447 C106.76563059 -0.33416408 110.89113951 -0.32973117 115.01734924 -0.32279968 C116.22249176 -0.33560974 117.42763428 -0.3484198 118.66929626 -0.36161804 C133.45591518 -0.27152465 145.55784847 4.99190817 156.10743713 15.26289368 C157.56917851 16.74282193 159.01762297 18.23419573 160.45907593 19.73389053 C162.01464785 21.35080487 163.58407031 22.95311051 165.15760803 24.55253601 C169.6222978 29.09592513 174.06047061 33.66489998 178.49269104 38.23994446 C181.22105364 41.05426346 183.96431712 43.85337862 186.71652222 46.64437485 C187.75257644 47.70138208 188.78277517 48.76416556 189.80657959 49.83304214 C191.24331516 51.33298 192.69833332 52.81286795 194.15821838 54.29023743 C195.38538574 55.55548752 195.38538574 55.55548752 196.63734436 56.84629822 C206.98181352 64.79203004 218.40238995 63.69546868 230.84889221 63.61372375 C233.0065879 63.61427302 235.16428377 63.61665095 237.32197571 63.62071228 C241.95509808 63.62587588 246.58798319 63.61885334 251.22107887 63.60246086 C258.55559808 63.5772775 265.88988484 63.58364447 273.22442627 63.59494019 C291.4416004 63.61810874 309.65870678 63.59974201 327.87586975 63.57344055 C342.03734117 63.55346888 356.19862584 63.54496252 370.36009759 63.57037693 C377.6424339 63.58215786 384.92423716 63.57061703 392.20651782 63.54112422 C396.74796296 63.52781457 401.28920421 63.53532366 405.8306427 63.54840469 C407.92636348 63.55025212 410.02211273 63.54362638 412.11777306 63.52760124 C428.90663614 63.40629426 441.56858386 65.55036169 454.63282776 77.14717102 C462.00870382 84.62391377 468.73544915 95.47344014 468.76984215 106.29063988 C468.77491669 107.13854446 468.77999123 107.98644904 468.78521955 108.8600477 C468.78596619 110.25772565 468.78596619 110.25772565 468.78672791 111.68363953 C468.79111016 112.67341722 468.79549241 113.66319492 468.80000746 114.68296587 C468.8134122 118.01527443 468.8195782 121.34755652 468.82569885 124.67988586 C468.83359873 127.06314718 468.84186761 129.44640729 468.85047913 131.82966614 C468.8744539 138.99501573 468.889633 146.16037059 468.90253919 153.32574695 C468.90625233 155.35105731 468.9102255 157.37636698 468.91429186 159.40167665 C468.93953745 171.98809596 468.96158304 184.57451639 468.97402 197.16095543 C468.97694956 200.0764453 468.97991123 202.99193514 468.98292542 205.90742493 C468.98367147 206.63202839 468.98441752 207.35663186 468.98518617 208.103193 C468.99782241 219.82457338 469.03102148 231.54580146 469.07272725 243.26711075 C469.11523156 255.31207167 469.13872511 267.35695485 469.14394057 279.40199053 C469.14734587 286.16028789 469.15899563 292.9183476 469.1920433 299.67657089 C469.22218625 306.04106591 469.22841315 312.40514787 469.21665955 318.7696991 C469.21643931 321.09923978 469.22470253 323.42879996 469.24231339 325.75827408 C469.36933322 343.53514876 467.70561789 356.29955088 455.19532776 369.77217102 C454.34970276 370.55592102 453.50407776 371.33967102 452.63282776 372.14717102 C452.15587463 372.6292804 451.67892151 373.11138977 451.18751526 373.60810852 C442.21784581 382.14446061 430.51373876 384.64456042 418.54298401 384.42451477 C413.52639553 384.06869281 411.37596892 383.45506321 407.63282776 380.14717102 C403.79120012 375.06630865 403.85047736 369.26372871 404.63282776 363.14717102 C405.9295407 358.94829102 408.14123392 356.52610794 411.63282776 353.83467102 C415.77369338 351.71942365 420.19140086 351.26572556 424.76564026 350.73701477 C428.09306617 350.05248982 429.98514413 349.29117072 432.63282776 347.14717102 C435.63117017 341.54997707 436.06081407 336.98295768 436.00704956 330.70346069 C436.01102397 329.77207431 436.01499837 328.84068792 436.01909322 327.88107771 C436.02869214 324.77048126 436.01691243 321.66034236 436.00514221 318.54975891 C436.00757098 316.31542796 436.01129112 314.0810981 436.01620483 311.84677124 C436.02560628 305.78480036 436.01619422 299.72299116 436.00287271 293.66103292 C435.99155045 287.31465079 435.99566636 280.96827653 435.99761963 274.62188721 C435.99850242 263.96337395 435.98749683 253.30493063 435.9690094 242.6464386 C435.9500109 231.69036436 435.94292101 220.73436407 435.94850159 209.77827454 C435.95521326 196.56254131 435.95190277 183.34684897 435.93939781 170.13111687 C435.93475668 165.08864675 435.93387589 160.04619672 435.93598366 155.00372505 C435.93786937 149.06361392 435.92974076 143.12359747 435.91392326 137.18350792 C435.90968604 135.00507626 435.90882608 132.82663499 435.91161346 130.64820099 C435.9148442 127.67131892 435.90573076 124.69471815 435.89352417 121.71786499 C435.89730349 120.85880635 435.90108282 119.99974771 435.90497667 119.11465698 C435.85824462 112.65775773 435.45909883 106.61800836 431.50782776 101.27217102 C425.53292099 96.85593559 418.55823677 96.85512714 411.39949036 96.89561462 C410.50274023 96.89264449 409.6059901 96.88967435 408.68206573 96.8866142 C405.6945583 96.87901101 402.70724963 96.88545315 399.71974182 96.89179993 C397.57057055 96.88904827 395.4214003 96.88536731 393.27223206 96.88082886 C388.65169653 96.87273001 384.03120935 96.87054512 379.41066742 96.87277603 C372.09761621 96.87561434 364.78466121 96.86123736 357.47163391 96.84379578 C336.67870018 96.79681955 315.88577315 96.77283259 295.0927887 96.76631165 C283.60306625 96.76255627 272.11345286 96.74448894 260.62377715 96.71121728 C253.36134259 96.69104523 246.09919012 96.68861261 238.83673906 96.69949746 C234.30845449 96.70211259 229.78033269 96.68806134 225.25209045 96.66941643 C223.16080571 96.66411361 221.06949063 96.66555834 218.97821808 96.67445183 C198.48665163 96.75453001 184.81516944 92.29329096 169.98536682 77.8585968 C168.5950389 76.4382502 167.20487553 75.01764606 165.829216 73.58308792 C164.34955944 72.04154526 162.85560384 70.51510804 161.35762024 68.99137878 C157.11128761 64.66672875 152.89219104 60.31584967 148.67823792 55.95967102 C146.07603598 53.27164143 143.45903501 50.59872535 140.83307648 47.93391037 C139.37148677 46.44127238 137.92835206 44.93229208 136.48493958 43.42210388 C135.13743622 42.0545546 135.13743622 42.0545546 133.76271057 40.65937805 C132.98695679 39.85823578 132.211203 39.05709351 131.41194153 38.23167419 C124.36377974 32.94512718 116.71625319 32.71154376 108.18141174 32.77485657 C107.07128723 32.7712059 105.96116272 32.76755524 104.81739807 32.76379395 C101.17108052 32.75572997 97.52521314 32.76926362 93.87892151 32.78388977 C91.33262126 32.78440884 88.78632061 32.78388934 86.24002075 32.78237915 C80.91328934 32.78246869 75.58671384 32.79251859 70.26002502 32.81098938 C64.11889324 32.83216362 57.97794855 32.83566288 51.83678764 32.82942742 C45.90528122 32.82371531 39.97383068 32.82950686 34.04232979 32.84060097 C31.5285932 32.84444203 29.01485101 32.84560573 26.50111198 32.84401512 C22.98558319 32.84364313 19.47033566 32.85630219 15.95484924 32.87251282 C14.92241592 32.8700354 13.8899826 32.86755798 12.82626343 32.86500549 C5.93800015 32.91554514 -0.51724208 33.0407009 -6.24217224 37.27217102 C-11.20844366 43.99124412 -10.65699612 52.13235525 -10.63459778 60.14082336 C-10.63912889 61.33441153 -10.64366 62.52799969 -10.64832842 63.75775719 C-10.65876529 67.05356971 -10.66030404 70.34916325 -10.65793967 73.64497662 C-10.65753023 77.20604691 -10.66858254 80.76708508 -10.67805481 84.32814026 C-10.69463627 91.29744435 -10.700163 98.2667146 -10.70127957 105.23603678 C-10.70223109 110.901305 -10.70634661 116.56656209 -10.71268082 122.23182678 C-10.73028297 138.30260023 -10.73952092 154.37334702 -10.73801987 170.44413018 C-10.7379 171.74249673 -10.7379 171.74249673 -10.73777771 173.0670929 C-10.73769595 173.93372991 -10.73761419 174.80036693 -10.73752995 175.69326568 C-10.73671663 189.74562709 -10.75586844 203.79788143 -10.78405444 217.85021186 C-10.8127838 232.28754983 -10.82659481 246.72483556 -10.82486689 261.16220284 C-10.82420316 269.26439566 -10.82968843 277.36647613 -10.85122299 285.46864319 C-10.86943515 292.36476023 -10.87378165 299.26071393 -10.86020415 306.15684462 C-10.85367549 309.67386846 -10.85355331 313.19057893 -10.87091064 316.70757294 C-10.88954723 320.52303317 -10.87708464 324.33803614 -10.86164856 328.15351868 C-10.87193569 329.26091589 -10.88222281 330.3683131 -10.89282167 331.50926781 C-10.83327459 338.16569592 -9.95091688 342.48640866 -6.36717224 348.14717102 C-1.56599374 351.70130727 3.16779924 351.56029714 8.90626526 351.51826477 C10.71876714 351.53564793 12.5312671 351.5532323 14.34376526 351.57099915 C17.17648396 351.58105643 20.00907634 351.58467027 22.84181213 351.58296204 C25.59283796 351.58655158 28.34291051 351.61396371 31.09376526 351.64326477 C31.9304776 351.63508224 32.76718994 351.62689972 33.6292572 351.61846924 C39.36769384 351.69037558 43.87439545 352.83001275 48.63282776 356.14717102 C52.64841737 361.06626829 53.27522278 365.19171851 53.01564026 371.49092102 C52.41307912 375.6719575 51.27117527 377.81452154 48.63282776 381.14717102 C43.26310793 384.73155795 38.2364541 384.6146377 32.00392151 384.61592102 C30.46478844 384.62734131 30.46478844 384.62734131 28.89456177 384.63899231 C26.72522913 384.64977636 24.55584464 384.65265333 22.38648987 384.64814758 C19.10506303 384.64718125 15.82602319 384.68869951 12.54493713 384.73310852 C-4.36960076 384.82979341 -16.28515684 382.50904247 -28.99217224 370.70967102 C-29.77592224 369.86404602 -30.55967224 369.01842102 -31.36717224 368.14717102 C-31.84928162 367.6702179 -32.33139099 367.19326477 -32.82810974 366.70185852 C-39.15951676 360.04906028 -43.48106896 350.20352343 -43.50418663 341.00419044 C-43.50926117 339.93334855 -43.51433572 338.86250665 -43.51956403 337.759215 C-43.52006179 336.578409 -43.52055955 335.39760301 -43.52107239 334.18101501 C-43.52545464 332.92988997 -43.5298369 331.67876492 -43.53435194 330.389727 C-43.5463208 326.9099192 -43.55196666 323.43012528 -43.5565331 319.95030093 C-43.5624883 316.19954948 -43.57409864 312.44881461 -43.58482361 308.69807434 C-43.60935389 299.63430132 -43.62397795 290.57052281 -43.63688368 281.5067268 C-43.64059588 278.94579744 -43.64456911 276.38486862 -43.64863634 273.8239398 C-43.67387882 257.91586376 -43.69592884 242.00778686 -43.70836449 226.09969521 C-43.71129413 222.41418581 -43.7142558 218.72867644 -43.7172699 215.04316711 C-43.71801595 214.1271643 -43.718762 213.2111615 -43.71953066 212.26740102 C-43.73217327 197.44210361 -43.76538067 182.61692644 -43.80707173 167.79168518 C-43.84954092 152.56460954 -43.87306548 137.33759534 -43.87828505 122.11046064 C-43.88169408 113.5636618 -43.89338873 105.01705065 -43.92638779 96.47031021 C-43.9544584 89.18809926 -43.96535715 81.90611448 -43.95419233 74.62385364 C-43.94902299 70.91175303 -43.95177855 67.20012549 -43.97665787 63.48809433 C-44.00347644 59.4527932 -43.99103119 55.41852253 -43.97517395 51.38316345 C-43.98905604 50.22466467 -44.00293813 49.0661659 -44.01724088 47.8725611 C-43.88126654 33.76418788 -38.04785046 21.72423132 -28.05076599 11.86201477 C-20.33942022 5.23991206 -10.30640283 0.04541527 0 0 Z " fill="#3E3642" transform="translate(43.36717224121094,-0.1471710205078125)"/>
<path d="M0 0 C1.26457031 0.268125 2.52914062 0.53625 3.83203125 0.8125 C41.1456815 9.22849849 74.83246564 32.04311378 95.41015625 64.5703125 C102.83797311 76.90512908 110.00431313 90.85792492 113 105 C113.17611816 105.82532227 113.35223633 106.65064453 113.53369141 107.50097656 C118.13220601 129.86982517 119.65236762 153.68682298 114 176 C113.83371094 176.67853027 113.66742188 177.35706055 113.49609375 178.05615234 C104.10346671 215.67014489 79.97347024 246.92899868 47.09912109 267.17041016 C24.68440483 280.57873498 -0.47832343 286.22961245 -26.375 286.25 C-27.52366043 286.25101212 -27.52366043 286.25101212 -28.69552612 286.25204468 C-39.76506761 286.23651571 -50.2445989 285.85041209 -61 283 C-61.66064453 282.83902832 -62.32128906 282.67805664 -63.00195312 282.51220703 C-81.2222779 278.05139845 -97.92552023 270.11274916 -113 259 C-114.27810547 258.08541016 -114.27810547 258.08541016 -115.58203125 257.15234375 C-146.69167065 233.67823774 -163.81040306 200.43219488 -170.58984375 162.71875 C-174.76191232 124.89199493 -166.11343759 84.7696805 -142.20703125 54.625 C-138.57674264 50.30720541 -134.87861441 46.09694701 -131 42 C-130.18015625 41.11570312 -129.3603125 40.23140625 -128.515625 39.3203125 C-96.55661395 5.94300214 -45.27918899 -9.61295207 0 0 Z M-58 34 C-59.03326416 34.32145996 -59.03326416 34.32145996 -60.08740234 34.64941406 C-73.70458892 39.04040546 -86.10964379 45.65973099 -97 55 C-97.80953125 55.68835938 -98.6190625 56.37671875 -99.453125 57.0859375 C-121.19967366 76.09749078 -137.161857 102.60409293 -139.20678711 131.96948242 C-140.25694495 165.60999315 -130.74165297 194.0762394 -108 219 C-107.03513672 220.08861328 -107.03513672 220.08861328 -106.05078125 221.19921875 C-88.67354782 239.78268096 -61.08245132 253.132579 -35.625 254.21484375 C-2.61468979 255.11779124 25.62185275 245.24380878 50 223 C51.08861328 222.03513672 51.08861328 222.03513672 52.19921875 221.05078125 C71.86473638 202.66172724 84.14493588 174.74133411 85.3203125 148.05859375 C85.6600756 135.22047256 84.82580497 123.28392023 81 111 C80.78569336 110.31115723 80.57138672 109.62231445 80.35058594 108.91259766 C70.76545382 79.18752636 49.58726827 55.66644793 22.125 41.1875 C16.82182596 38.66909772 11.42762287 36.5899063 5.875 34.6875 C4.81949951 34.32338013 4.81949951 34.32338013 3.74267578 33.9519043 C-15.91085672 27.57003704 -38.34453247 27.87833981 -58 34 Z " fill="#3E3643" transform="translate(299,226)"/>
<path d="M0 0 C0.69029297 -0.01611328 1.38058594 -0.03222656 2.09179688 -0.04882812 C8.14522123 -0.05456597 12.05552084 1.59269547 16.63079834 5.51330566 C17.481922 6.36807495 18.33304565 7.22284424 19.20996094 8.10351562 C19.68554947 8.57705978 20.161138 9.05060394 20.65113831 9.53849792 C22.20706372 11.09143731 23.75203186 12.65479217 25.296875 14.21875 C26.38151529 15.30645131 27.46675032 16.39355985 28.55255127 17.48010254 C30.81975535 19.75189569 33.08197701 22.02849246 35.34033203 24.30908203 C38.23423708 27.2313357 41.13681065 30.14478074 44.04269028 33.05512238 C46.28052098 35.2971096 48.51550665 37.54191364 50.74945831 39.7877655 C51.81911301 40.86311279 52.88923433 41.93799614 53.95983124 43.0124054 C55.45339433 44.51284574 56.94352209 46.01661134 58.43261719 47.52148438 C59.28055847 48.37625366 60.12849976 49.23102295 61.00213623 50.11169434 C65.43631417 54.84812199 65.49229247 58.10045589 65.37890625 64.359375 C64.95481976 68.3175156 63.79184941 70.43561819 61.0625 73.3125 C56.89792755 76.46243116 53.1942559 76.80177513 48.125 76.75 C47.43470703 76.76998047 46.74441406 76.78996094 46.03320312 76.81054688 C38.61065252 76.80351128 34.78679726 73.13381176 29.7578125 68.203125 C28.22921445 66.66134938 26.7058819 65.11433778 25.1875 63.5625 C24.40375 62.76972656 23.62 61.97695313 22.8125 61.16015625 C20.89119286 59.21541853 18.97473453 57.26615247 17.0625 55.3125 C17.05885437 56.44731812 17.05520874 57.58213623 17.05145264 58.75134277 C17.01446097 69.46237471 16.95664248 80.17312026 16.87859726 90.88393402 C16.83914117 96.39008247 16.80694339 101.89607143 16.79150391 107.40234375 C16.77632522 112.71935298 16.74185763 118.03592369 16.69419098 123.35273743 C16.67938977 125.37799766 16.67145971 127.4033205 16.67061615 129.42863464 C16.66824098 132.27255635 16.64111685 135.11527162 16.60839844 137.95898438 C16.61594398 139.20624298 16.61594398 139.20624298 16.62364197 140.47869873 C16.52431171 146.0839021 15.41661923 150.71873147 12.0625 155.3125 C7.5979954 158.73743217 2.91374069 160.04893983 -2.6953125 159.7578125 C-6.71875163 158.95873225 -10.07732862 157.25679406 -12.9375 154.3125 C-15.83449841 148.75341156 -16.38054749 144.28413656 -16.36987305 138.07250977 C-16.3800647 137.17415909 -16.39025635 136.27580841 -16.40075684 135.35023499 C-16.43078374 132.40139445 -16.44013704 129.45287931 -16.44921875 126.50390625 C-16.46607306 124.45123728 -16.48422432 122.39857858 -16.50361633 120.34593201 C-16.55104059 114.95870168 -16.58089902 109.57151303 -16.60705566 104.18414307 C-16.63689936 98.68062107 -16.68341663 93.17724251 -16.72851562 87.67382812 C-16.81446262 76.8867939 -16.88184623 66.09973009 -16.9375 55.3125 C-17.87634033 56.11856689 -18.81518066 56.92463379 -19.7824707 57.75512695 C-21.03855859 58.83286327 -22.29466299 59.91058034 -23.55078125 60.98828125 C-24.16667114 61.51715942 -24.78256104 62.0460376 -25.41711426 62.59094238 C-43.04672261 77.71281586 -43.04672261 77.71281586 -52.43359375 77.58984375 C-57.41142193 77.03847745 -59.99709084 74.30240438 -63.3125 70.8125 C-65.78439324 65.48842226 -66.12288961 61.05451904 -64.9375 55.3125 C-63.24481201 52.87719727 -63.24481201 52.87719727 -61.01855469 50.56640625 C-60.20020142 49.7057959 -59.38184814 48.84518555 -58.53869629 47.95849609 C-57.68030151 47.08531738 -56.82190674 46.21213867 -55.9375 45.3125 C-55.13356812 44.47928223 -54.32963623 43.64606445 -53.50134277 42.78759766 C-50.96179672 40.17312495 -48.39917371 37.58348747 -45.828125 35 C-44.89828796 34.06446289 -43.96845093 33.12892578 -43.01043701 32.16503906 C-41.06271642 30.20693421 -39.11277757 28.25106748 -37.16162109 26.29638672 C-34.66791632 23.79714289 -32.18367169 21.28870414 -29.7013588 18.77815247 C-27.31267518 16.36637898 -24.91345466 13.96518008 -22.515625 11.5625 C-21.62909241 10.66362061 -20.74255981 9.76474121 -19.8291626 8.83862305 C-18.99769714 8.01015869 -18.16623169 7.18169434 -17.30957031 6.328125 C-16.58392883 5.59883789 -15.85828735 4.86955078 -15.11065674 4.11816406 C-10.46567747 0.25867616 -5.84734332 -0.02714644 0 0 Z " fill="#D9E1F1" transform="translate(271.9375,288.6875)"/>
</svg>
